<?xml version="1.0" encoding="UTF-8" standalone="no"?>
<svg
   xmlns:dc="http://purl.org/dc/elements/1.1/"
   xmlns:cc="http://creativecommons.org/ns#"
   xmlns:rdf="http://www.w3.org/1999/02/22-rdf-syntax-ns#"
   xmlns:svg="http://www.w3.org/2000/svg"
   xmlns="http://www.w3.org/2000/svg"
   xmlns:sodipodi="http://sodipodi.sourceforge.net/DTD/sodipodi-0.dtd"
   xmlns:inkscape="http://www.inkscape.org/namespaces/inkscape"
   width="40"
   height="40"
   version="1.1"
   id="svg827"
   sodipodi:docname="rectangle-icon.svg"
   inkscape:version="0.92.4 (5da689c313, 2019-01-14)">
  <metadata
     id="metadata833">
    <rdf:RDF>
      <cc:Work
         rdf:about="">
        <dc:format>image/svg+xml</dc:format>
        <dc:type
           rdf:resource="http://purl.org/dc/dcmitype/StillImage" />
      </cc:Work>
    </rdf:RDF>
  </metadata>
  <defs
     id="defs831" />
  <sodipodi:namedview
     pagecolor="#ffffff"
     bordercolor="#666666"
     borderopacity="1"
     objecttolerance="10"
     gridtolerance="10"
     guidetolerance="10"
     inkscape:pageopacity="0"
     inkscape:pageshadow="2"
     inkscape:window-width="1680"
     inkscape:window-height="987"
     id="namedview829"
     showgrid="false"
     inkscape:zoom="3.6150834"
     inkscape:cx="24.215942"
     inkscape:cy="28.018973"
     inkscape:window-x="-8"
     inkscape:window-y="19"
     inkscape:window-maximized="1"
     inkscape:current-layer="layer3" />
  <g
     inkscape:groupmode="layer"
     id="layer3"
     inkscape:label="flower"
     style="display:inline">
    <path
       style="fill:#008800;fill-opacity:1;stroke:#008800;stroke-width:0.34912539;stroke-linecap:round;stroke-linejoin:round;stroke-miterlimit:4;stroke-dasharray:none;stroke-dashoffset:0;stroke-opacity:1;paint-order:normal"
       id="path4604"
       sodipodi:type="arc"
       sodipodi:cx="33.143253"
       sodipodi:cy="15.784567"
       sodipodi:rx="4.637054"
       sodipodi:ry="0.76231128"
       sodipodi:start="0"
       sodipodi:end="6.2375449"
       sodipodi:open="true"
       d="m 37.780307,15.784567 a 4.637054,0.76231128 0 0 1 -4.584146,0.762262 4.637054,0.76231128 0 0 1 -4.688754,-0.744868 4.637054,0.76231128 0 0 1 4.47715,-0.779259 4.637054,0.76231128 0 0 1 4.790922,0.727085"
       transform="matrix(0.97744323,0.21119833,-0.24625896,0.96920407,0,0)" />
    <path
       style="fill:#008800;fill-opacity:1;stroke:#008800;stroke-width:0.35786062;stroke-linecap:round;stroke-linejoin:round;stroke-miterlimit:4;stroke-dasharray:none;stroke-dashoffset:0;stroke-opacity:1;paint-order:normal"
       id="path4604-3"
       sodipodi:type="arc"
       sodipodi:cx="18.234482"
       sodipodi:cy="28.814302"
       sodipodi:rx="4.5852036"
       sodipodi:ry="0.80999213"
       sodipodi:start="0"
       sodipodi:end="6.2375449"
       sodipodi:open="true"
       d="m 22.819685,28.814302 a 4.5852036,0.80999213 0 0 1 -4.532887,0.80994 4.5852036,0.80999213 0 0 1 -4.636326,-0.791457 4.5852036,0.80999213 0 0 1 4.427088,-0.828 4.5852036,0.80999213 0 0 1 4.737351,0.772562"
       transform="matrix(0.91635252,-0.40037239,0.40101283,0.91607244,0,0)" />
    <path
       style="fill:#008800;fill-opacity:1;stroke:#008800;stroke-width:0.35116228;stroke-linecap:round;stroke-linejoin:round;stroke-miterlimit:4;stroke-dasharray:none;stroke-dashoffset:0;stroke-opacity:1;paint-order:normal"
       id="path4604-33"
       sodipodi:type="arc"
       sodipodi:cx="-2.5288668"
       sodipodi:cy="30.551931"
       sodipodi:rx="4.5141077"
       sodipodi:ry="0.79223752"
       sodipodi:start="0"
       sodipodi:end="6.2375449"
       sodipodi:open="true"
       d="m 1.9852409,30.551931 a 4.5141077,0.79223752 0 0 1 -4.4626024,0.792186 4.5141077,0.79223752 0 0 1 -4.5644376,-0.774108 4.5141077,0.79223752 0 0 1 4.3584432,-0.809851 4.5141077,0.79223752 0 0 1 4.6638961,0.755628"
       transform="matrix(0.45987824,-0.88798198,0.88315444,0.46908234,0,0)" />
    <path
       style="fill:#008800;fill-opacity:1;stroke:#008800;stroke-width:0.24705768;stroke-linecap:round;stroke-linejoin:round;stroke-miterlimit:4;stroke-dasharray:none;stroke-dashoffset:0;stroke-opacity:1;paint-order:normal"
       id="path4604-8"
       sodipodi:type="arc"
       sodipodi:cx="23.883224"
       sodipodi:cy="14.83884"
       sodipodi:rx="2.9975309"
       sodipodi:ry="0.59053361"
       sodipodi:start="0"
       sodipodi:end="6.2375449"
       sodipodi:open="true"
       d="m 26.880755,14.83884 a 2.9975309,0.59053361 0 0 1 -2.963329,0.590495 2.9975309,0.59053361 0 0 1 -3.030952,-0.577021 2.9975309,0.59053361 0 0 1 2.894164,-0.603662 2.9975309,0.59053361 0 0 1 3.096996,0.563245"
       transform="matrix(0.96676018,0.25568487,-0.20324906,0.97912707,0,0)" />
    <path
       style="fill:#008800;fill-opacity:1;stroke:#008800;stroke-width:0.29076746;stroke-linecap:round;stroke-linejoin:round;stroke-miterlimit:4;stroke-dasharray:none;stroke-dashoffset:0;stroke-opacity:1;paint-order:normal"
       id="path4604-5"
       sodipodi:type="arc"
       sodipodi:cx="26.670303"
       sodipodi:cy="-4.6146808"
       sodipodi:rx="3.6799948"
       sodipodi:ry="0.66627878"
       sodipodi:start="0"
       sodipodi:end="6.2375449"
       sodipodi:open="true"
       d="m 30.350298,-4.6146808 a 3.6799948,0.66627878 0 0 1 -3.638006,0.6662354 3.6799948,0.66627878 0 0 1 -3.721025,-0.6510321 3.6799948,0.66627878 0 0 1 3.553094,-0.6810917 3.6799948,0.66627878 0 0 1 3.802105,0.6354898"
       transform="matrix(0.63137202,0.77548009,-0.82425788,0.56621458,0,0)" />
    <path
       style="fill:#008800;fill-opacity:1;stroke:#008800;stroke-width:0.32415786;stroke-linecap:round;stroke-linejoin:round;stroke-miterlimit:4;stroke-dasharray:none;stroke-dashoffset:0;stroke-opacity:1;paint-order:normal"
       id="path4604-39"
       sodipodi:type="arc"
       sodipodi:cx="-19.138611"
       sodipodi:cy="19.602346"
       sodipodi:rx="3.8219361"
       sodipodi:ry="0.79733592"
       sodipodi:start="0"
       sodipodi:end="6.2375449"
       sodipodi:open="true"
       d="m -15.316675,19.602346 a 3.8219361,0.79733592 0 0 1 -3.778328,0.797284 3.8219361,0.79733592 0 0 1 -3.864549,-0.77909 3.8219361,0.79733592 0 0 1 3.690141,-0.815062 3.8219361,0.79733592 0 0 1 3.948756,0.76049"
       transform="matrix(-0.16315084,-0.98660114,0.99320783,-0.11635383,0,0)" />
    <path
       style="fill:#008800;fill-opacity:1;stroke:#008800;stroke-width:0.23635273;stroke-linecap:round;stroke-linejoin:round;stroke-miterlimit:4;stroke-dasharray:none;stroke-dashoffset:0;stroke-opacity:1;paint-order:normal"
       id="path4604-5-5"
       sodipodi:type="arc"
       sodipodi:cx="5.4147654"
       sodipodi:cy="31.119261"
       sodipodi:rx="2.9913142"
       sodipodi:ry="0.54159021"
       sodipodi:start="0"
       sodipodi:end="6.2375449"
       sodipodi:open="true"
       d="M 8.4060795,31.119261 A 2.9913142,0.54159021 0 0 1 5.4488958,31.660816 2.9913142,0.54159021 0 0 1 2.42423,31.131619 2.9913142,0.54159021 0 0 1 5.3123918,30.577988 2.9913142,0.54159021 0 0 1 8.4029645,31.094551"
       transform="matrix(0.80865945,-0.58827705,0.52056405,0.85382262,0,0)" />
    <path
       style="fill:#008800;fill-opacity:1;stroke:#008800;stroke-width:0.33661538;stroke-linecap:round;stroke-linejoin:round;stroke-miterlimit:4;stroke-dasharray:none;stroke-dashoffset:0;stroke-opacity:1;paint-order:normal"
       id="path4604-5-7"
       sodipodi:type="arc"
       sodipodi:cx="37.567768"
       sodipodi:cy="4.2227001"
       sodipodi:rx="4.2925439"
       sodipodi:ry="0.76553458"
       sodipodi:start="0"
       sodipodi:end="6.2375449"
       sodipodi:open="true"
       d="m 41.860312,4.2227001 a 4.2925439,0.76553458 0 0 1 -4.243567,0.7654848 4.2925439,0.76553458 0 0 1 -4.340403,-0.7480166 4.2925439,0.76553458 0 0 1 4.14452,-0.7825543 4.2925439,0.76553458 0 0 1 4.43498,0.7301589"
       transform="matrix(0.82045447,0.57171187,-0.69277292,0.72115579,0,0)" />
    <path
       style="fill:#008800;fill-opacity:1;stroke:#008800;stroke-width:0.34156045;stroke-linecap:round;stroke-linejoin:round;stroke-miterlimit:4;stroke-dasharray:none;stroke-dashoffset:0;stroke-opacity:1;paint-order:normal"
       id="path4604-5-77"
       sodipodi:type="arc"
       sodipodi:cx="33.431873"
       sodipodi:cy="-11.561541"
       sodipodi:rx="4.3472228"
       sodipodi:ry="0.77827817"
       sodipodi:start="0"
       sodipodi:end="6.2375449"
       sodipodi:open="true"
       d="m 37.779096,-11.561541 a 4.3472228,0.77827817 0 0 1 -4.297622,0.778228 4.3472228,0.77827817 0 0 1 -4.395692,-0.760469 4.3472228,0.77827817 0 0 1 4.197314,-0.795581 4.3472228,0.77827817 0 0 1 4.491473,0.742314"
       transform="matrix(0.44296281,0.89653999,-0.92480207,0.38044859,0,0)" />
    <path
       style="fill:#008800;fill-opacity:1;stroke:#008800;stroke-width:0.28468147;stroke-linecap:round;stroke-linejoin:round;stroke-miterlimit:4;stroke-dasharray:none;stroke-dashoffset:0;stroke-opacity:1;paint-order:normal"
       id="path4604-5-1"
       sodipodi:type="arc"
       sodipodi:cx="23.26844"
       sodipodi:cy="-24.366373"
       sodipodi:rx="3.4970999"
       sodipodi:ry="0.67208147"
       sodipodi:start="0"
       sodipodi:end="6.2375449"
       sodipodi:open="true"
       d="m 26.76554,-24.366373 a 3.4970999,0.67208147 0 0 1 -3.457198,0.672038 3.4970999,0.67208147 0 0 1 -3.536091,-0.656702 3.4970999,0.67208147 0 0 1 3.376506,-0.687024 3.4970999,0.67208147 0 0 1 3.613141,0.641025"
       transform="matrix(-0.04214498,0.99911151,-0.99350427,-0.11379482,0,0)" />
    <path
       style="fill:#008800;fill-opacity:1;stroke:#008800;stroke-width:0.29076746;stroke-linecap:round;stroke-linejoin:round;stroke-miterlimit:4;stroke-dasharray:none;stroke-dashoffset:0;stroke-opacity:1;paint-order:normal"
       id="path4604-5-6"
       sodipodi:type="arc"
       sodipodi:cx="10.333575"
       sodipodi:cy="-30.568211"
       sodipodi:rx="3.6799948"
       sodipodi:ry="0.66627878"
       sodipodi:start="0"
       sodipodi:end="6.2375449"
       sodipodi:open="true"
       d="m 14.01357,-30.568211 a 3.6799948,0.66627878 0 0 1 -3.638007,0.666236 3.6799948,0.66627878 0 0 1 -3.7210244,-0.651032 3.6799948,0.66627878 0 0 1 3.5530944,-0.681092 3.6799948,0.66627878 0 0 1 3.802105,0.63549"
       transform="matrix(-0.44900641,0.89352853,-0.85405328,-0.52018555,0,0)" />
    <path
       style="fill:#008800;fill-opacity:1;stroke:none;stroke-width:0.37795275;stroke-linecap:round;stroke-linejoin:round;stroke-miterlimit:4;stroke-dasharray:none;stroke-dashoffset:0;stroke-opacity:1;paint-order:normal"
       id="path4871"
       sodipodi:type="arc"
       sodipodi:cx="10.234895"
       sodipodi:cy="25.062586"
       sodipodi:rx="0.55323756"
       sodipodi:ry="8.1602545"
       sodipodi:start="0"
       sodipodi:end="6.2375449"
       sodipodi:open="true"
       d="m 10.788132,25.062586 a 0.55323756,8.1602545 0 0 1 -0.546925,8.159723 0.55323756,8.1602545 0 0 1 -0.5594058,-7.973521 0.55323756,8.1602545 0 0 1 0.5341598,-8.341676 0.55323756,8.1602545 0 0 1 0.571595,7.783166" />
    <path
       style="display:inline;fill:#8400aa;fill-opacity:1;stroke:none;stroke-width:0.40104356;stroke-linecap:round;stroke-linejoin:round;stroke-miterlimit:4;stroke-dasharray:none;stroke-dashoffset:0;stroke-opacity:1;paint-order:normal"
       id="path4728"
       sodipodi:type="arc"
       sodipodi:cx="9.1143942"
       sodipodi:cy="27.745964"
       sodipodi:rx="1.1491443"
       sodipodi:ry="0.95354521"
       sodipodi:start="0"
       sodipodi:end="6.2375449"
       sodipodi:open="true"
       d="M 10.263538,27.745964 A 1.1491443,0.95354521 0 0 1 9.1275058,28.699447 1.1491443,0.95354521 0 0 1 7.9655491,27.767722 1.1491443,0.95354521 0 0 1 9.0750663,26.792977 1.1491443,0.95354521 0 0 1 10.262342,27.702459" />
    <path
       style="display:inline;fill:#8400aa;fill-opacity:1;stroke:none;stroke-width:0.40104356;stroke-linecap:round;stroke-linejoin:round;stroke-miterlimit:4;stroke-dasharray:none;stroke-dashoffset:0;stroke-opacity:1;paint-order:normal"
       id="path4728-7"
       sodipodi:type="arc"
       sodipodi:cx="11.388234"
       sodipodi:cy="27.623714"
       sodipodi:rx="1.1491443"
       sodipodi:ry="0.95354521"
       sodipodi:start="0"
       sodipodi:end="6.2375449"
       sodipodi:open="true"
       d="m 12.537378,27.623714 a 1.1491443,0.95354521 0 0 1 -1.136032,0.953484 1.1491443,0.95354521 0 0 1 -1.161957,-0.931725 1.1491443,0.95354521 0 0 1 1.109517,-0.974745 1.1491443,0.95354521 0 0 1 1.187276,0.909481" />
    <path
       style="display:inline;fill:#8400aa;fill-opacity:1;stroke:none;stroke-width:0.40104356;stroke-linecap:round;stroke-linejoin:round;stroke-miterlimit:4;stroke-dasharray:none;stroke-dashoffset:0;stroke-opacity:1;paint-order:normal"
       id="path4728-3"
       sodipodi:type="arc"
       sodipodi:cx="11.241534"
       sodipodi:cy="25.569927"
       sodipodi:rx="1.1491443"
       sodipodi:ry="0.95354521"
       sodipodi:start="0"
       sodipodi:end="6.2375449"
       sodipodi:open="true"
       d="m 12.390679,25.569927 a 1.1491443,0.95354521 0 0 1 -1.136033,0.953483 1.1491443,0.95354521 0 0 1 -1.161957,-0.931725 1.1491443,0.95354521 0 0 1 1.109517,-0.974744 1.1491443,0.95354521 0 0 1 1.187276,0.909481" />
    <path
       style="display:inline;fill:#8400aa;fill-opacity:1;stroke:none;stroke-width:0.40104356;stroke-linecap:round;stroke-linejoin:round;stroke-miterlimit:4;stroke-dasharray:none;stroke-dashoffset:0;stroke-opacity:1;paint-order:normal"
       id="path4728-4"
       sodipodi:type="arc"
       sodipodi:cx="8.9432459"
       sodipodi:cy="25.521027"
       sodipodi:rx="1.1491443"
       sodipodi:ry="0.95354521"
       sodipodi:start="0"
       sodipodi:end="6.2375449"
       sodipodi:open="true"
       d="M 10.09239,25.521027 A 1.1491443,0.95354521 0 0 1 8.9563575,26.47451 1.1491443,0.95354521 0 0 1 7.7944008,25.542785 1.1491443,0.95354521 0 0 1 8.903918,24.56804 a 1.1491443,0.95354521 0 0 1 1.187276,0.909482" />
    <path
       style="display:inline;fill:#8400aa;fill-opacity:1;stroke:none;stroke-width:0.36339468;stroke-linecap:round;stroke-linejoin:round;stroke-miterlimit:4;stroke-dasharray:none;stroke-dashoffset:0;stroke-opacity:1;paint-order:normal"
       id="path4728-1"
       sodipodi:type="arc"
       sodipodi:cx="11.192635"
       sodipodi:cy="23.467237"
       sodipodi:rx="1.0513448"
       sodipodi:ry="0.85574567"
       sodipodi:start="0"
       sodipodi:end="6.2375449"
       sodipodi:open="true"
       d="m 12.243979,23.467237 a 1.0513448,0.85574567 0 0 1 -1.039349,0.85569 1.0513448,0.85574567 0 0 1 -1.063066,-0.836163 1.0513448,0.85574567 0 0 1 1.01509,-0.874771 1.0513448,0.85574567 0 0 1 1.086231,0.816201" />
    <path
       style="display:inline;fill:#8400aa;fill-opacity:1;stroke:none;stroke-width:0.36339468;stroke-linecap:round;stroke-linejoin:round;stroke-miterlimit:4;stroke-dasharray:none;stroke-dashoffset:0;stroke-opacity:1;paint-order:normal"
       id="path4728-1-4"
       sodipodi:type="arc"
       sodipodi:cx="9.0410452"
       sodipodi:cy="23.613937"
       sodipodi:rx="1.0513448"
       sodipodi:ry="0.85574567"
       sodipodi:start="0"
       sodipodi:end="6.2375449"
       sodipodi:open="true"
       d="m 10.09239,23.613937 a 1.0513448,0.85574567 0 0 1 -1.0393491,0.85569 1.0513448,0.85574567 0 0 1 -1.0630667,-0.836163 1.0513448,0.85574567 0 0 1 1.0150902,-0.874771 1.0513448,0.85574567 0 0 1 1.0862306,0.816201" />
    <path
       style="display:inline;fill:#8400aa;fill-opacity:1;stroke:none;stroke-width:0.36339468;stroke-linecap:round;stroke-linejoin:round;stroke-miterlimit:4;stroke-dasharray:none;stroke-dashoffset:0;stroke-opacity:1;paint-order:normal"
       id="path4728-1-1"
       sodipodi:type="arc"
       sodipodi:cx="9.0410452"
       sodipodi:cy="22.000244"
       sodipodi:rx="1.0513448"
       sodipodi:ry="0.85574567"
       sodipodi:start="0"
       sodipodi:end="6.2375449"
       sodipodi:open="true"
       d="M 10.09239,22.000244 A 1.0513448,0.85574567 0 0 1 9.0530409,22.855934 1.0513448,0.85574567 0 0 1 7.9899742,22.019771 1.0513448,0.85574567 0 0 1 9.0050644,21.145 1.0513448,0.85574567 0 0 1 10.091295,21.961201" />
    <path
       style="display:inline;fill:#8400aa;fill-opacity:1;stroke:none;stroke-width:0.36339468;stroke-linecap:round;stroke-linejoin:round;stroke-miterlimit:4;stroke-dasharray:none;stroke-dashoffset:0;stroke-opacity:1;paint-order:normal"
       id="path4728-1-13"
       sodipodi:type="arc"
       sodipodi:cx="11.143736"
       sodipodi:cy="21.902445"
       sodipodi:rx="1.0513448"
       sodipodi:ry="0.85574567"
       sodipodi:start="0"
       sodipodi:end="6.2375449"
       sodipodi:open="true"
       d="m 12.195081,21.902445 a 1.0513448,0.85574567 0 0 1 -1.039349,0.85569 1.0513448,0.85574567 0 0 1 -1.063067,-0.836164 1.0513448,0.85574567 0 0 1 1.01509,-0.874771 1.0513448,0.85574567 0 0 1 1.086231,0.816202" />
    <path
       style="display:inline;fill:#8400aa;fill-opacity:1;stroke:none;stroke-width:0.31095755;stroke-linecap:round;stroke-linejoin:round;stroke-miterlimit:4;stroke-dasharray:none;stroke-dashoffset:0;stroke-opacity:1;paint-order:normal"
       id="path4728-1-6"
       sodipodi:type="arc"
       sodipodi:cx="9.1632948"
       sodipodi:cy="20.582151"
       sodipodi:rx="0.92909539"
       sodipodi:ry="0.70904642"
       sodipodi:start="0"
       sodipodi:end="6.2375449"
       sodipodi:open="true"
       d="M 10.09239,20.582151 A 0.92909539,0.70904642 0 0 1 9.1738956,21.291152 0.92909539,0.70904642 0 0 1 8.2344413,20.598331 0.92909539,0.70904642 0 0 1 9.1314978,19.87352 0.92909539,0.70904642 0 0 1 10.091423,20.549801" />
    <path
       style="display:inline;fill:#8400aa;fill-opacity:1;stroke:none;stroke-width:0.3285208;stroke-linecap:round;stroke-linejoin:round;stroke-miterlimit:4;stroke-dasharray:none;stroke-dashoffset:0;stroke-opacity:1;paint-order:normal"
       id="path4728-1-7"
       sodipodi:type="arc"
       sodipodi:cx="11.094836"
       sodipodi:cy="20.411003"
       sodipodi:rx="1.002445"
       sodipodi:ry="0.73349631"
       sodipodi:start="0"
       sodipodi:end="6.2375449"
       sodipodi:open="true"
       d="m 12.097281,20.411003 a 1.002445,0.73349631 0 0 1 -0.991007,0.733449 1.002445,0.73349631 0 0 1 -1.013622,-0.716712 1.002445,0.73349631 0 0 1 0.967877,-0.749804 1.002445,0.73349631 0 0 1 1.035708,0.699602" />
    <path
       style="display:inline;fill:#8400aa;fill-opacity:1;stroke:none;stroke-width:0.30266386;stroke-linecap:round;stroke-linejoin:round;stroke-miterlimit:4;stroke-dasharray:none;stroke-dashoffset:0;stroke-opacity:1;paint-order:normal"
       id="path4728-1-11"
       sodipodi:type="arc"
       sodipodi:cx="9.5055933"
       sodipodi:cy="19.261858"
       sodipodi:rx="0.88019562"
       sodipodi:ry="0.70904642"
       sodipodi:start="0"
       sodipodi:end="6.2375449"
       sodipodi:open="true"
       d="m 10.385789,19.261858 a 0.88019562,0.70904642 0 0 1 -0.8701528,0.709 0.88019562,0.70904642 0 0 1 -0.8900093,-0.692821 0.88019562,0.70904642 0 0 1 0.8498429,-0.72481 0.88019562,0.70904642 0 0 1 0.9094022,0.676281" />
    <path
       style="display:inline;fill:#8400aa;fill-opacity:1;stroke:none;stroke-width:0.30266386;stroke-linecap:round;stroke-linejoin:round;stroke-miterlimit:4;stroke-dasharray:none;stroke-dashoffset:0;stroke-opacity:1;paint-order:normal"
       id="path4728-1-11-7"
       sodipodi:type="arc"
       sodipodi:cx="10.997036"
       sodipodi:cy="19.164059"
       sodipodi:rx="0.88019562"
       sodipodi:ry="0.70904642"
       sodipodi:start="0"
       sodipodi:end="6.2375449"
       sodipodi:open="true"
       d="m 11.877232,19.164059 a 0.88019562,0.70904642 0 0 1 -0.870153,0.709 0.88019562,0.70904642 0 0 1 -0.890009,-0.692821 0.88019562,0.70904642 0 0 1 0.849842,-0.72481 0.88019562,0.70904642 0 0 1 0.909403,0.676281" />
    <path
       style="display:inline;fill:#8400aa;fill-opacity:1;stroke:none;stroke-width:0.25550348;stroke-linecap:round;stroke-linejoin:round;stroke-miterlimit:4;stroke-dasharray:none;stroke-dashoffset:0;stroke-opacity:1;paint-order:normal"
       id="path4728-1-11-3"
       sodipodi:type="arc"
       sodipodi:cx="9.7500916"
       sodipodi:cy="18.063814"
       sodipodi:rx="0.75794625"
       sodipodi:ry="0.58679706"
       sodipodi:start="0"
       sodipodi:end="6.2375449"
       sodipodi:open="true"
       d="m 10.508038,18.063814 a 0.75794625,0.58679706 0 0 1 -0.7492984,0.586759 0.75794625,0.58679706 0 0 1 -0.766397,-0.573369 0.75794625,0.58679706 0 0 1 0.7318093,-0.599843 0.75794625,0.58679706 0 0 1 0.7830971,0.559681" />
    <path
       style="display:inline;fill:#8400aa;fill-opacity:1;stroke:none;stroke-width:0.25550348;stroke-linecap:round;stroke-linejoin:round;stroke-miterlimit:4;stroke-dasharray:none;stroke-dashoffset:0;stroke-opacity:1;paint-order:normal"
       id="path4728-1-11-3-5"
       sodipodi:type="arc"
       sodipodi:cx="11.143735"
       sodipodi:cy="18.039366"
       sodipodi:rx="0.75794625"
       sodipodi:ry="0.58679706"
       sodipodi:start="0"
       sodipodi:end="6.2375449"
       sodipodi:open="true"
       d="m 11.901681,18.039366 a 0.75794625,0.58679706 0 0 1 -0.749298,0.586759 0.75794625,0.58679706 0 0 1 -0.766397,-0.57337 0.75794625,0.58679706 0 0 1 0.731809,-0.599843 0.75794625,0.58679706 0 0 1 0.783097,0.559681" />
    <path
       style="display:inline;fill:#8400aa;fill-opacity:1;stroke:none;stroke-width:0.47227845;stroke-linecap:round;stroke-linejoin:round;stroke-miterlimit:4;stroke-dasharray:none;stroke-dashoffset:0;stroke-opacity:1;paint-order:normal"
       id="path4728-1-11-3-0"
       sodipodi:type="arc"
       sodipodi:cx="10.410239"
       sodipodi:cy="16.376772"
       sodipodi:rx="0.75794625"
       sodipodi:ry="2.00489"
       sodipodi:start="0"
       sodipodi:end="6.2375449"
       sodipodi:open="true"
       d="M 11.168185,16.376772 A 0.75794625,2.00489 0 0 1 10.418887,18.381531 0.75794625,2.00489 0 0 1 9.6524903,16.42252 0.75794625,2.00489 0 0 1 10.3843,14.373056 0.75794625,2.00489 0 0 1 11.167396,16.2853" />
  </g>
  <g
     inkscape:groupmode="layer"
     id="layer2"
     inkscape:label="rectangle"
     style="display:inline"
     sodipodi:insensitive="true">
    <path
       style="fill:none;fill-rule:evenodd;stroke:#000000;stroke-width:2"
       d="M 3,8 H 37 V 33 H 3 Z"
       id="path825"
       inkscape:connector-curvature="0" />
  </g>
</svg>
