<?xml version="1.0" encoding="UTF-8" standalone="no"?>
<svg
   xmlns:dc="http://purl.org/dc/elements/1.1/"
   xmlns:cc="http://creativecommons.org/ns#"
   xmlns:rdf="http://www.w3.org/1999/02/22-rdf-syntax-ns#"
   xmlns:svg="http://www.w3.org/2000/svg"
   xmlns="http://www.w3.org/2000/svg"
   xmlns:sodipodi="http://sodipodi.sourceforge.net/DTD/sodipodi-0.dtd"
   xmlns:inkscape="http://www.inkscape.org/namespaces/inkscape"
   width="40"
   height="40"
   version="1.1"
   id="svg827"
   sodipodi:docname="rectangle-icon.svg"
   inkscape:version="0.92.4 (5da689c313, 2019-01-14)">
  <metadata
     id="metadata833">
    <rdf:RDF>
      <cc:Work
         rdf:about="">
        <dc:format>image/svg+xml</dc:format>
        <dc:type
           rdf:resource="http://purl.org/dc/dcmitype/StillImage" />
      </cc:Work>
    </rdf:RDF>
  </metadata>
  <defs
     id="defs831" />
  <sodipodi:namedview
     pagecolor="#ffffff"
     bordercolor="#666666"
     borderopacity="1"
     objecttolerance="10"
     gridtolerance="10"
     guidetolerance="10"
     inkscape:pageopacity="0"
     inkscape:pageshadow="2"
     inkscape:window-width="1680"
     inkscape:window-height="987"
     id="namedview829"
     showgrid="false"
     inkscape:zoom="3.6"
     inkscape:cx="49.454653"
     inkscape:cy="-5.1880968"
     inkscape:window-x="-8"
     inkscape:window-y="19"
     inkscape:window-maximized="1"
     inkscape:current-layer="layer4" />
  <g
     inkscape:groupmode="layer"
     id="layer4"
     inkscape:label="flower_2"
     style="display:inline">
    <path
       style="fill:none;stroke:#009800;stroke-width:4;stroke-linecap:butt;stroke-linejoin:miter;stroke-miterlimit:4;stroke-dasharray:none;stroke-opacity:1"
       d="m 10.527398,20.703867 c 0,0.207781 0,0.41556 0,0.623341 0,0.36546 -0.05097,-0.07345 0.216253,0.31167 0.03223,0.04647 0,0.103891 0,0.155836 0,0.05194 0,0.10389 0,0.155836 0,0.09773 -0.02671,0.60409 0,0.62334 0.05097,0.03673 0.165284,-0.03673 0.216252,0 0.108127,0.07792 -0.108126,0.389588 0,0.467505 0.05097,0.03673 0.165285,-0.03673 0.216253,0 0.05097,0.03673 -0.03224,0.109372 0,0.155836 0.0456,0.06572 0.170658,0.09012 0.216253,0.155835 0.03224,0.04647 -0.05097,0.119108 0,0.155836 0.05097,0.03673 0.165285,-0.03673 0.216252,0 0.101937,0.07346 -0.101938,0.23821 0,0.31167 0.05097,0.03673 0.165285,-0.03673 0.216253,0 0.05097,0.03673 -0.05097,0.119108 0,0.155836 0.05097,0.03673 0.151775,-0.02323 0.216253,0 0.09119,0.03286 0.144168,0.10389 0.216253,0.155836 0.07209,0.05194 0.170658,0.09012 0.216252,0.155836 0.03224,0.04647 -0.05097,0.119108 0,0.155836 0.05097,0.03673 0.165285,-0.03673 0.216253,0 0.05097,0.03673 -0.05097,0.119107 0,0.155835 0.05097,0.03673 0.151775,-0.02323 0.216253,0 0.09119,0.03286 0.144168,0.103892 0.216252,0.155837 0.07209,0.05194 0.170659,0.09012 0.216253,0.155835 0.03224,0.04647 -0.05097,0.119108 0,0.155836 0.05097,0.03673 0.165285,-0.03673 0.216253,0 0.05097,0.03673 -0.05097,0.119108 0,0.155836 0.447432,0.322429 -0.01746,-0.492712 0.432505,0.155836 0.03224,0.04647 -0.03224,0.109372 0,0.155836 0.04559,0.06572 0.170658,0.09012 0.216253,0.155836 0.03223,0.04647 -0.05097,0.119108 0,0.155836 0.05097,0.03673 0.165285,-0.03673 0.216253,0 0.05097,0.03673 -0.03224,0.109372 0,0.155835 0.129751,0.187002 0.519002,0.280504 0.648754,0.467506 0.03224,0.04647 -0.05097,0.119108 0,0.155836 0.05097,0.03673 0.165285,-0.03673 0.216252,0 0.101937,0.07345 -0.101938,0.238209 0,0.311671 0.05097,0.03673 0.165285,-0.03673 0.216253,0 0.05097,0.03673 -0.05097,0.119107 0,0.155835 0.05097,0.03673 0.151775,-0.02323 0.216253,0 0.09119,0.03286 0.125063,0.12298 0.216253,0.155837 0.06448,0.02323 0.165284,-0.03673 0.216252,0 0.05097,0.03673 -0.03224,0.109372 0,0.155835 0.239072,0.34456 0.134218,0.04836 0.432504,0.155836 0.899987,0.324274 -0.231181,-0.01084 0.216252,0.31167 0.05097,0.03673 0.144169,0 0.216253,0 0.07209,0 0.144168,0 0.216253,0"
       id="path2637"
       inkscape:connector-curvature="0" />
    <path
       style="fill:none;stroke:#009800;stroke-width:4;stroke-linecap:butt;stroke-linejoin:miter;stroke-miterlimit:4;stroke-dasharray:none;stroke-opacity:1"
       d="m 30.234331,20.842756 c -0.08546,0.0011 0.06461,1.153567 0,1.246682 -0.04559,0.06572 -0.155091,0.09707 -0.216251,0.155835 -0.155933,0.149829 -0.316271,0.299987 -0.432504,0.467506 -0.03224,0.04647 0.03998,0.112623 0,0.155836 -0.166347,0.179811 -0.482408,0.287695 -0.648754,0.467506 -0.783976,1.129894 0.227947,-0.246398 -0.432505,0.467505 -0.08942,0.09664 -0.126833,0.215026 -0.216253,0.311669 -0.05654,0.06112 -0.144169,0.103891 -0.216252,0.155837 -0.07209,0.05194 -0.125065,0.122979 -0.216253,0.155835 -0.06448,0.02323 -0.165286,-0.03673 -0.216253,0 -0.05097,0.03673 0.03224,0.109372 0,0.155836 -0.04559,0.06572 -0.144169,0.10389 -0.216253,0.155836 -0.07209,0.05194 -0.125064,0.12298 -0.216252,0.155836 -0.06448,0.02323 -0.151775,-0.02323 -0.216253,0 -0.09119,0.03286 -0.131433,0.115092 -0.216253,0.155836 -0.134108,0.06443 -0.318529,0.0737 -0.432503,0.155835 -0.05097,0.03673 0.06448,0.132605 0,0.155837 -0.128956,0.04647 -0.303555,-0.04647 -0.432503,0 -0.06448,0.02323 0.05097,0.119107 0,0.155835 -0.101938,0.07345 -0.330562,-0.07345 -0.432504,0 -0.05097,0.03673 0.05097,0.119108 0,0.155836 -0.05097,0.03673 -0.144168,0 -0.216253,0 0,0.05194 0.05097,0.119108 0,0.155837 -0.101938,0.07345 -0.303556,-0.04647 -0.432503,0 -0.182355,0.06572 -0.250144,0.245963 -0.432503,0.311669 -0.06448,0.02323 -0.151775,-0.02323 -0.216253,0 -0.259501,0.0935 -0.389253,0.374004 -0.648754,0.467506 -0.06448,0.02323 -0.165285,-0.03673 -0.216253,0 -0.05097,0.03673 0.05097,0.119108 0,0.155836 -0.05097,0.03673 -0.165285,-0.03673 -0.216252,0 -0.05097,0.03673 0.03224,0.109372 0,0.155836 -0.04559,0.06572 -0.144168,0.103891 -0.216253,0.155836 -0.07209,0.05194 -0.125064,0.12298 -0.216253,0.155836 -0.06448,0.02323 -0.165285,-0.03673 -0.216253,0 -0.05097,0.03673 0.05097,0.119107 0,0.155836 -0.05097,0.03673 -0.165284,-0.03673 -0.216252,0 -0.143439,0.103348 0.143439,0.208313 0,0.31167 -0.05097,0.03673 -0.151774,-0.02323 -0.216253,0 -0.09119,0.03286 -0.125063,0.122979 -0.216253,0.155835 -0.05687,0.02049 -0.751922,0 -0.865005,0 -0.07209,0 -0.144169,0 -0.216254,0 -0.07209,0 -0.216253,0.05194 -0.216253,0 0,-0.05194 0.267221,-0.03673 0.216253,0 -0.113985,0.08214 -0.288338,0.103907 -0.43251,0.155853"
       id="path2639"
       inkscape:connector-curvature="0" />
    <path
       style="fill:none;stroke:#009800;stroke-width:4;stroke-linecap:butt;stroke-linejoin:miter;stroke-miterlimit:4;stroke-dasharray:none;stroke-opacity:1"
       d="m 19.848153,18.081923 c -0.158364,0.164988 0.09113,0.984023 0,1.246682 -0.0391,0.112686 -0.184633,0.197773 -0.216253,0.311669 -0.07069,0.254682 0.08741,0.527206 0,0.779177 -0.280724,0.809185 -0.216253,-0.166361 -0.216253,0.62334 0,0.363616 0,0.727231 0,1.090845 0,0.10389 0,0.207781 0,0.31167 0,0.05194 0.0228,0.106552 0,0.155836 -0.248487,0.537197 -0.216253,0.115443 -0.216253,0.467506 0,0.571395 0,1.14279 0,1.714185 0,0.05194 0,0.10389 0,0.155836 0,0.05194 0.05097,0.119107 0,0.155835 -0.05097,0.03673 -0.165284,-0.03673 -0.216252,0 -0.05097,0.03673 0,0.103892 0,0.155837 0,0.259724 0,0.51945 0,0.779174 0,0.05194 0.05097,0.119108 0,0.155836 -0.05097,0.03673 -0.165285,-0.03673 -0.216253,0 -0.05097,0.03673 0,0.103891 0,0.155836 0,0.10389 0,0.207781 0,0.31167 0,0.259725 0,0.519451 0,0.779176 0,0.103891 0.03496,0.210882 0,0.31167 -0.0391,0.112687 -0.177159,0.198986 -0.216253,0.311671 -0.04396,0.126724 0,0.771876 0,0.93501 0,0.05194 0.0228,0.106552 0,0.155836 -0.05097,0.110184 -0.165285,0.201479 -0.216252,0.311671 -0.04559,0.09856 0,0.20778 0,0.311671 0,0.259724 0,0.519449 0,0.779174 0,0.31167 0,0.623341 0,0.93501 0,0.103891 0.04559,0.213111 0,0.311671 -0.03224,0.06969 -0.170659,0.09012 -0.216253,0.155836 -0.03224,0.04646 0,0.10389 0,0.155835 0,0.259726 0,0.519452 0,0.779177 0,0.10389 0.03496,0.210881 0,0.311669 -0.0391,0.112687 -0.184632,0.197773 -0.216253,0.311671 -0.04066,0.14653 0,0.882007 0,1.090845 0,0.675285 0,1.35057 0,2.025857 0,0.259724 0,0.51945 0,0.779176 0,0.10389 0,0.207779 0,0.31167 0,0.05194 -0.03224,0.109372 0,0.155836 0.04559,0.06572 0.170658,0.09012 0.216253,0.155835 0.03223,0.04647 0,0.103891 0,0.155837 0,0.10389 -0.03496,0.210881 0,0.311669 0.0391,0.112686 0.165286,0.20148 0.216253,0.311671 0.0228,0.04928 0,0.10389 0,0.155836 0,0.259724 0,0.519449 0,0.779174 0,0.05194 -0.03224,0.109372 0,0.155836 0.04559,0.06572 0.170658,0.09012 0.216252,0.155836 0.03224,0.04647 0,0.10389 0,0.155835 0,0.05194 0,0.103891 0,0.155837 0,0.259726 0,0.519451 0,0.779176 0,0.05194 -0.03224,0.109372 0,0.155835 0.04559,0.06572 0.170658,0.09012 0.216253,0.155837 0.04288,0.06179 -0.0442,0.435646 0,0.467503 0.05097,0.03673 0.184014,-0.04646 0.216253,0 0.09672,0.139392 0,0.311671 0,0.467507 0,0.363615 0,0.727231 0,1.090846 0,0.155836 -0.06839,0.319666 0,0.467504 0.03224,0.06969 0.184014,0.08614 0.216252,0.155836 0.04217,0.09117 0,0.801252 0,0.935011 0,0.675285 0,1.35057 0,2.025855 0,1.714187 0,3.428373 0,5.142558"
       id="path2645"
       inkscape:connector-curvature="0" />
    <path
       style="fill:#ffd300;fill-opacity:1;stroke:#000000;stroke-width:1.069;stroke-linecap:round;stroke-linejoin:round;stroke-miterlimit:4;stroke-dasharray:none;stroke-dashoffset:0;stroke-opacity:1;paint-order:normal"
       id="path2537-5"
       sodipodi:type="arc"
       sodipodi:cx="20.005444"
       sodipodi:cy="14.559834"
       sodipodi:rx="15.07695"
       sodipodi:ry="4.0303693"
       sodipodi:start="0"
       sodipodi:end="6.2375449"
       sodipodi:open="true"
       d="M 35.082394,14.559834 A 15.07695,4.0303693 0 0 1 20.177469,18.58994 15.07695,4.0303693 0 0 1 4.9324191,14.651799 15.07695,4.0303693 0 0 1 19.489456,10.531825 15.07695,4.0303693 0 0 1 35.066693,14.37595" />
  </g>
  <g
     inkscape:groupmode="layer"
     id="layer2"
     inkscape:label="rectangle"
     style="display:inline"
     sodipodi:insensitive="true">
    <path
       style="fill:none;fill-rule:evenodd;stroke:#000000;stroke-width:2;stroke-opacity:1"
       d="M 3,8 H 37 V 33 H 3 Z"
       id="path825"
       inkscape:connector-curvature="0" />
  </g>
</svg>
